<?xml version="1.0" encoding="UTF-8" standalone="no"?>
<!DOCTYPE svg PUBLIC "-//W3C//DTD SVG 1.1//EN" "http://www.w3.org/Graphics/SVG/1.1/DTD/svg11.dtd">
<svg xmlns="http://www.w3.org/2000/svg" version="1.1" viewBox="0.00 0.00 64.00 64.00">
<g stroke-width="2.00" fill="none" stroke-linecap="butt">
<path stroke="#1d511d" vector-effect="non-scaling-stroke" d="
  M 21.90 16.01
  A 0.12 0.12 0.0 0 0 22.10 15.95
  C 23.54 9.66 17.36 10.18 13.81 12.30
  Q 12.99 12.79 13.95 12.85
  Q 18.45 13.15 21.90 16.01"
/>
<path stroke="#1d511d" vector-effect="non-scaling-stroke" d="
  M 58.77 20.15
  C 51.34 7.93 36.01 8.48 25.04 15.53
  Q 23.73 16.37 24.10 17.59
  Q 24.27 18.17 24.80 17.88
  C 34.53 12.48 50.41 10.71 58.24 20.52
  A 0.32 0.32 0.0 0 0 58.77 20.15"
/>
<path stroke="#3e6627" vector-effect="non-scaling-stroke" d="
  M 10.02 29.44
  Q 6.17 29.89 2.48 28.82
  A 0.67 0.66 69.3 0 0 1.94 30.02
  Q 9.01 34.52 17.01 33.63
  C 23.98 32.85 22.58 23.32 21.94 18.23
  Q 21.87 17.72 21.50 17.37
  Q 18.31 14.37 14.10 14.19
  C 10.86 14.06 7.77 16.48 4.71 17.86
  Q 4.26 18.06 4.15 18.55
  Q 3.46 21.65 1.68 24.32
  A 2.21 2.20 24.2 0 0 2.96 27.68
  Q 6.24 28.54 9.68 28.24
  A 0.68 0.57 34.1 0 1 10.02 29.44"
/>
<path stroke="#3e6627" vector-effect="non-scaling-stroke" d="
  M 26.08 27.39
  A 2.62 2.62 0.0 0 1 29.67 25.77
  C 31.94 26.79 36.19 29.35 36.56 32.38
  Q 36.64 33.00 37.26 33.00
  L 44.53 33.00
  Q 45.18 33.00 44.94 32.40
  C 42.67 26.68 46.87 22.64 52.30 25.02
  C 55.31 26.33 62.77 34.49 55.28 35.71
  Q 54.84 35.78 55.06 36.18
  C 61.53 47.90 51.52 62.44 37.80 59.78
  C 29.86 58.24 30.16 48.15 37.87 47.55
  C 39.44 47.42 40.49 48.17 41.92 48.76
  A 0.27 0.27 0.0 0 0 42.23 48.33
  Q 39.53 45.27 35.68 46.41
  C 28.02 48.69 28.04 59.93 35.53 62.01
  C 43.88 64.33 51.87 60.72 57.05 53.90
  C 66.86 40.97 63.93 16.85 44.29 14.96
  Q 33.56 13.93 24.28 19.72
  Q 23.79 20.02 23.87 20.60
  Q 24.61 26.17 23.14 31.51
  Q 23.00 32.04 23.49 32.28
  Q 25.83 33.37 28.43 32.92
  A 0.34 0.34 0.0 0 0 28.50 32.28
  Q 25.04 30.82 26.08 27.39"
/>
<path stroke="#1d511d" vector-effect="non-scaling-stroke" d="
  M 48.25 38.01
  C 46.89 37.96 43.40 37.85 43.40 39.15
  A 0.45 0.45 0.0 0 0 44.02 39.57
  Q 46.32 38.64 48.68 39.50
  A 1.87 1.86 1.8 0 0 51.12 37.22
  L 49.41 31.49
  A 0.64 0.64 0.0 0 1 50.51 30.90
  C 51.84 32.51 53.52 34.59 55.85 33.85
  A 1.60 1.60 0.0 0 0 56.76 31.55
  C 54.87 28.14 49.93 23.45 46.27 27.43
  A 1.25 1.24 66.2 0 0 45.93 28.31
  Q 45.97 33.21 48.67 37.27
  A 0.48 0.48 0.0 0 1 48.25 38.01"
/>
<path stroke="#1d511d" vector-effect="non-scaling-stroke" d="
  M 32.57 33.71
  Q 31.06 35.25 30.52 37.33
  Q 30.20 38.55 29.00 38.16
  Q 26.77 37.43 25.18 38.95
  A 0.41 0.41 0.0 0 0 25.63 39.62
  Q 28.15 38.51 30.71 39.62
  A 1.21 1.20 15.6 0 0 32.39 38.68
  Q 32.81 35.65 34.60 33.10
  A 1.74 1.73 35.9 0 0 34.21 30.71
  L 29.36 27.11
  A 0.74 0.73 -48.9 0 0 28.41 27.18
  L 27.57 28.00
  A 1.37 1.37 0.0 0 0 27.84 30.17
  L 32.44 32.81
  Q 33.09 33.18 32.57 33.71"
/>
<path stroke="#3e6627" vector-effect="non-scaling-stroke" d="
  M 18.81 21.43
  A 5.41 5.41 0.0 0 0 13.40 16.02
  A 5.41 5.41 0.0 0 0 7.99 21.43
  A 5.41 5.41 0.0 0 0 13.40 26.84
  A 5.41 5.41 0.0 0 0 18.81 21.43"
/>
<path stroke="#3e6627" vector-effect="non-scaling-stroke" d="
  M 3.79 25.77
  Q 4.45 26.53 4.96 25.98
  A 0.62 0.62 0.0 0 0 4.34 24.96
  Q 3.74 25.12 3.74 25.64
  A 0.20 0.16 -71.0 0 0 3.79 25.77"
/>
<path stroke="#3e6627" vector-effect="non-scaling-stroke" d="
  M 51.87 19.34
  Q 41.93 14.26 31.49 18.69
  C 31.31 18.76 31.05 19.29 31.10 19.47
  A 0.48 0.48 0.0 0 0 31.74 19.82
  Q 41.93 15.93 51.83 20.38
  A 0.48 0.48 0.0 0 0 52.47 20.11
  C 52.70 19.48 52.20 19.51 51.87 19.34"
/>
<path stroke="#1d511d" vector-effect="non-scaling-stroke" d="
  M 17.58 21.42
  A 4.12 4.12 0.0 0 0 13.46 17.30
  A 4.12 4.12 0.0 0 0 9.34 21.42
  A 4.12 4.12 0.0 0 0 13.46 25.54
  A 4.12 4.12 0.0 0 0 17.58 21.42"
/>
<path stroke="#1d511d" vector-effect="non-scaling-stroke" d="
  M 13.90 20.44
  L 14.85 21.74
  A 0.48 0.47 42.7 0 0 15.64 21.71
  C 17.22 19.14 10.26 17.87 10.99 21.65
  A 0.48 0.48 0.0 0 0 11.84 21.86
  L 13.01 20.42
  A 0.56 0.56 0.0 0 1 13.90 20.44"
/>
</g>
<path fill="#000000" d="
  M 64.00 32.59
  L 64.00 39.53
  C 62.25 51.99 55.21 61.81 42.54 64.00
  L 38.30 64.00
  Q 29.37 62.47 28.63 55.18
  C 27.32 42.39 45.69 42.64 44.18 51.08
  A 0.59 0.59 0.0 0 1 43.44 51.55
  C 42.05 51.19 41.12 49.78 40.07 49.33
  C 33.17 46.34 29.61 57.69 38.81 58.86
  Q 47.77 60.00 52.81 52.78
  C 56.21 47.91 57.81 40.43 52.74 36.09
  A 0.44 0.44 0.0 0 0 52.02 36.52
  L 52.27 37.77
  Q 52.36 38.26 52.20 38.73
  C 51.06 42.12 46.45 40.32 43.62 40.80
  A 1.61 1.60 -72.4 0 1 42.22 38.09
  Q 43.73 36.54 45.95 37.09
  A 0.50 0.50 0.0 0 0 46.53 36.42
  L 45.92 34.79
  Q 45.72 34.25 45.14 34.25
  L 35.96 34.25
  A 0.98 0.97 14.7 0 0 35.11 34.74
  Q 34.32 36.08 33.76 38.50
  C 32.93 42.05 27.56 40.48 24.89 40.79
  Q 24.39 40.84 24.08 40.45
  C 22.32 38.15 25.36 36.60 27.27 36.79
  C 29.29 37.00 29.97 36.41 30.00 34.40
  A 0.48 0.48 0.0 0 0 29.39 33.94
  Q 25.58 35.01 22.32 33.01
  A 0.82 0.82 0.0 0 0 21.41 33.06
  C 16.64 36.62 -0.52 35.30 0.00 26.43
  L 0.00 25.18
  L 3.24 17.76
  Q 3.44 17.31 3.85 17.04
  C 5.88 15.73 7.89 15.24 9.66 13.52
  C 13.48 9.82 21.79 5.90 24.01 13.67
  Q 24.18 14.26 24.70 13.94
  Q 34.94 7.58 45.49 9.25
  C 57.81 11.21 62.68 21.26 64.00 32.59
  Z
  M 21.90 16.01
  A 0.12 0.12 0.0 0 0 22.10 15.95
  C 23.54 9.66 17.36 10.18 13.81 12.30
  Q 12.99 12.79 13.95 12.85
  Q 18.45 13.15 21.90 16.01
  Z
  M 58.77 20.15
  C 51.34 7.93 36.01 8.48 25.04 15.53
  Q 23.73 16.37 24.10 17.59
  Q 24.27 18.17 24.80 17.88
  C 34.53 12.48 50.41 10.71 58.24 20.52
  A 0.32 0.32 0.0 0 0 58.77 20.15
  Z
  M 10.02 29.44
  Q 6.17 29.89 2.48 28.82
  A 0.67 0.66 69.3 0 0 1.94 30.02
  Q 9.01 34.52 17.01 33.63
  C 23.98 32.85 22.58 23.32 21.94 18.23
  Q 21.87 17.72 21.50 17.37
  Q 18.31 14.37 14.10 14.19
  C 10.86 14.06 7.77 16.48 4.71 17.86
  Q 4.26 18.06 4.15 18.55
  Q 3.46 21.65 1.68 24.32
  A 2.21 2.20 24.2 0 0 2.96 27.68
  Q 6.24 28.54 9.68 28.24
  A 0.68 0.57 34.1 0 1 10.02 29.44
  Z
  M 26.08 27.39
  A 2.62 2.62 0.0 0 1 29.67 25.77
  C 31.94 26.79 36.19 29.35 36.56 32.38
  Q 36.64 33.00 37.26 33.00
  L 44.53 33.00
  Q 45.18 33.00 44.94 32.40
  C 42.67 26.68 46.87 22.64 52.30 25.02
  C 55.31 26.33 62.77 34.49 55.28 35.71
  Q 54.84 35.78 55.06 36.18
  C 61.53 47.90 51.52 62.44 37.80 59.78
  C 29.86 58.24 30.16 48.15 37.87 47.55
  C 39.44 47.42 40.49 48.17 41.92 48.76
  A 0.27 0.27 0.0 0 0 42.23 48.33
  Q 39.53 45.27 35.68 46.41
  C 28.02 48.69 28.04 59.93 35.53 62.01
  C 43.88 64.33 51.87 60.72 57.05 53.90
  C 66.86 40.97 63.93 16.85 44.29 14.96
  Q 33.56 13.93 24.28 19.72
  Q 23.79 20.02 23.87 20.60
  Q 24.61 26.17 23.14 31.51
  Q 23.00 32.04 23.49 32.28
  Q 25.83 33.37 28.43 32.92
  A 0.34 0.34 0.0 0 0 28.50 32.28
  Q 25.04 30.82 26.08 27.39
  Z
  M 48.25 38.01
  C 46.89 37.96 43.40 37.85 43.40 39.15
  A 0.45 0.45 0.0 0 0 44.02 39.57
  Q 46.32 38.64 48.68 39.50
  A 1.87 1.86 1.8 0 0 51.12 37.22
  L 49.41 31.49
  A 0.64 0.64 0.0 0 1 50.51 30.90
  C 51.84 32.51 53.52 34.59 55.85 33.85
  A 1.60 1.60 0.0 0 0 56.76 31.55
  C 54.87 28.14 49.93 23.45 46.27 27.43
  A 1.25 1.24 66.2 0 0 45.93 28.31
  Q 45.97 33.21 48.67 37.27
  A 0.48 0.48 0.0 0 1 48.25 38.01
  Z
  M 32.57 33.71
  Q 31.06 35.25 30.52 37.33
  Q 30.20 38.55 29.00 38.16
  Q 26.77 37.43 25.18 38.95
  A 0.41 0.41 0.0 0 0 25.63 39.62
  Q 28.15 38.51 30.71 39.62
  A 1.21 1.20 15.6 0 0 32.39 38.68
  Q 32.81 35.65 34.60 33.10
  A 1.74 1.73 35.9 0 0 34.21 30.71
  L 29.36 27.11
  A 0.74 0.73 -48.9 0 0 28.41 27.18
  L 27.57 28.00
  A 1.37 1.37 0.0 0 0 27.84 30.17
  L 32.44 32.81
  Q 33.09 33.18 32.57 33.71
  Z"
/>
<path fill="#3aa13a" d="
  M 21.90 16.01
  Q 18.45 13.15 13.95 12.85
  Q 12.99 12.79 13.81 12.30
  C 17.36 10.18 23.54 9.66 22.10 15.95
  A 0.12 0.12 0.0 0 1 21.90 16.01
  Z"
/>
<path fill="#3aa13a" d="
  M 25.04 15.53
  C 36.01 8.48 51.34 7.93 58.77 20.15
  A 0.32 0.32 0.0 0 1 58.24 20.52
  C 50.41 10.71 34.53 12.48 24.80 17.88
  Q 24.27 18.17 24.10 17.59
  Q 23.73 16.37 25.04 15.53
  Z"
/>
<path fill="#7ccc4e" d="
  M 10.02 29.44
  A 0.68 0.57 34.1 0 0 9.68 28.24
  Q 6.24 28.54 2.96 27.68
  A 2.21 2.20 24.2 0 1 1.68 24.32
  Q 3.46 21.65 4.15 18.55
  Q 4.26 18.06 4.71 17.86
  C 7.77 16.48 10.86 14.06 14.10 14.19
  Q 18.31 14.37 21.50 17.37
  Q 21.87 17.72 21.94 18.23
  C 22.58 23.32 23.98 32.85 17.01 33.63
  Q 9.01 34.52 1.94 30.02
  A 0.67 0.66 69.3 0 1 2.48 28.82
  Q 6.17 29.89 10.02 29.44
  Z
  M 18.81 21.43
  A 5.41 5.41 0.0 0 0 13.40 16.02
  A 5.41 5.41 0.0 0 0 7.99 21.43
  A 5.41 5.41 0.0 0 0 13.40 26.84
  A 5.41 5.41 0.0 0 0 18.81 21.43
  Z
  M 3.79 25.77
  Q 4.45 26.53 4.96 25.98
  A 0.62 0.62 0.0 0 0 4.34 24.96
  Q 3.74 25.12 3.74 25.64
  A 0.20 0.16 -71.0 0 0 3.79 25.77
  Z"
/>
<path fill="#7ccc4e" d="
  M 26.08 27.39
  Q 25.04 30.82 28.50 32.28
  A 0.34 0.34 0.0 0 1 28.43 32.92
  Q 25.83 33.37 23.49 32.28
  Q 23.00 32.04 23.14 31.51
  Q 24.61 26.17 23.87 20.60
  Q 23.79 20.02 24.28 19.72
  Q 33.56 13.93 44.29 14.96
  C 63.93 16.85 66.86 40.97 57.05 53.90
  C 51.87 60.72 43.88 64.33 35.53 62.01
  C 28.04 59.93 28.02 48.69 35.68 46.41
  Q 39.53 45.27 42.23 48.33
  A 0.27 0.27 0.0 0 1 41.92 48.76
  C 40.49 48.17 39.44 47.42 37.87 47.55
  C 30.16 48.15 29.86 58.24 37.80 59.78
  C 51.52 62.44 61.53 47.90 55.06 36.18
  Q 54.84 35.78 55.28 35.71
  C 62.77 34.49 55.31 26.33 52.30 25.02
  C 46.87 22.64 42.67 26.68 44.94 32.40
  Q 45.18 33.00 44.53 33.00
  L 37.26 33.00
  Q 36.64 33.00 36.56 32.38
  C 36.19 29.35 31.94 26.79 29.67 25.77
  A 2.62 2.62 0.0 0 0 26.08 27.39
  Z
  M 51.87 19.34
  Q 41.93 14.26 31.49 18.69
  C 31.31 18.76 31.05 19.29 31.10 19.47
  A 0.48 0.48 0.0 0 0 31.74 19.82
  Q 41.93 15.93 51.83 20.38
  A 0.48 0.48 0.0 0 0 52.47 20.11
  C 52.70 19.48 52.20 19.51 51.87 19.34
  Z"
/>
<path fill="#000000" d="
  M 18.81 21.43
  A 5.41 5.41 0.0 0 1 13.40 26.84
  A 5.41 5.41 0.0 0 1 7.99 21.43
  A 5.41 5.41 0.0 0 1 13.40 16.02
  A 5.41 5.41 0.0 0 1 18.81 21.43
  Z
  M 17.58 21.42
  A 4.12 4.12 0.0 0 0 13.46 17.30
  A 4.12 4.12 0.0 0 0 9.34 21.42
  A 4.12 4.12 0.0 0 0 13.46 25.54
  A 4.12 4.12 0.0 0 0 17.58 21.42
  Z"
/>
<path fill="#000000" d="
  M 51.87 19.34
  C 52.20 19.51 52.70 19.48 52.47 20.11
  A 0.48 0.48 0.0 0 1 51.83 20.38
  Q 41.93 15.93 31.74 19.82
  A 0.48 0.48 0.0 0 1 31.10 19.47
  C 31.05 19.29 31.31 18.76 31.49 18.69
  Q 41.93 14.26 51.87 19.34
  Z"
/>
<path fill="#3aa13a" d="
  M 17.58 21.42
  A 4.12 4.12 0.0 0 1 13.46 25.54
  A 4.12 4.12 0.0 0 1 9.34 21.42
  A 4.12 4.12 0.0 0 1 13.46 17.30
  A 4.12 4.12 0.0 0 1 17.58 21.42
  Z
  M 13.90 20.44
  L 14.85 21.74
  A 0.48 0.47 42.7 0 0 15.64 21.71
  C 17.22 19.14 10.26 17.87 10.99 21.65
  A 0.48 0.48 0.0 0 0 11.84 21.86
  L 13.01 20.42
  A 0.56 0.56 0.0 0 1 13.90 20.44
  Z"
/>
<path fill="#000000" d="
  M 13.01 20.42
  L 11.84 21.86
  A 0.48 0.48 0.0 0 1 10.99 21.65
  C 10.26 17.87 17.22 19.14 15.64 21.71
  A 0.48 0.47 42.7 0 1 14.85 21.74
  L 13.90 20.44
  A 0.56 0.56 0.0 0 0 13.01 20.42
  Z"
/>
<path fill="#000000" d="
  M 3.79 25.77
  A 0.20 0.16 -71.0 0 1 3.74 25.64
  Q 3.74 25.12 4.34 24.96
  A 0.62 0.62 0.0 0 1 4.96 25.98
  Q 4.45 26.53 3.79 25.77
  Z"
/>
<path fill="#3aa13a" d="
  M 48.67 37.27
  Q 45.97 33.21 45.93 28.31
  A 1.25 1.24 66.2 0 1 46.27 27.43
  C 49.93 23.45 54.87 28.14 56.76 31.55
  A 1.60 1.60 0.0 0 1 55.85 33.85
  C 53.52 34.59 51.84 32.51 50.51 30.90
  A 0.64 0.64 0.0 0 0 49.41 31.49
  L 51.12 37.22
  A 1.87 1.86 1.8 0 1 48.68 39.50
  Q 46.32 38.64 44.02 39.57
  A 0.45 0.45 0.0 0 1 43.40 39.15
  C 43.40 37.85 46.89 37.96 48.25 38.01
  A 0.48 0.48 0.0 0 0 48.67 37.27
  Z"
/>
<path fill="#3aa13a" d="
  M 32.44 32.81
  L 27.84 30.17
  A 1.37 1.37 0.0 0 1 27.57 28.00
  L 28.41 27.18
  A 0.74 0.73 -48.9 0 1 29.36 27.11
  L 34.21 30.71
  A 1.74 1.73 35.9 0 1 34.60 33.10
  Q 32.81 35.65 32.39 38.68
  A 1.21 1.20 15.6 0 1 30.71 39.62
  Q 28.15 38.51 25.63 39.62
  A 0.41 0.41 0.0 0 1 25.18 38.95
  Q 26.77 37.43 29.00 38.16
  Q 30.20 38.55 30.52 37.33
  Q 31.06 35.25 32.57 33.71
  Q 33.09 33.18 32.44 32.81
  Z"
/>
</svg>
