<?xml version="1.0" encoding="UTF-8" standalone="no"?>
<!DOCTYPE svg PUBLIC "-//W3C//DTD SVG 1.1//EN" "http://www.w3.org/Graphics/SVG/1.1/DTD/svg11.dtd">
<svg xmlns="http://www.w3.org/2000/svg" version="1.1" viewBox="0.00 0.00 225.00 225.00">
<g stroke-width="2.00" fill="none" stroke-linecap="butt">
<path stroke="#d8dfe2" vector-effect="non-scaling-stroke" d="
  M 169.34 18.17
  C 166.55 15.38 160.53 10.43 155.86 9.92
  A 1.26 1.24 27.1 0 0 154.90 10.22
  C 152.48 12.31 153.99 14.36 156.03 15.92
  C 169.89 26.51 176.55 38.84 182.31 55.00
  A 2.11 2.11 0.0 0 0 185.12 56.24
  Q 187.27 55.33 186.92 53.01
  Q 183.84 32.64 169.34 18.17"
/>
<path stroke="#ffe594" vector-effect="non-scaling-stroke" d="
  M 116.95 11.95
  C 106.86 14.12 107.84 23.10 111.15 30.33
  Q 118.44 46.22 125.73 62.11
  Q 133.61 79.31 137.04 89.72
  Q 137.76 91.90 135.79 92.42"
/>
<path stroke="#f6d380" vector-effect="non-scaling-stroke" d="
  M 135.79 92.42
  Q 132.29 91.22 130.51 88.47
  Q 116.45 66.87 95.46 33.01
  C 91.26 26.23 84.59 15.64 74.80 21.52"
/>
<path stroke="#ffe594" vector-effect="non-scaling-stroke" d="
  M 74.80 21.52
  C 64.22 26.32 70.30 38.21 74.12 45.10
  Q 90.80 75.21 107.97 105.04
  Q 108.60 106.15 108.00 108.05"
/>
<path stroke="#f6d380" vector-effect="non-scaling-stroke" d="
  M 108.00 108.05
  C 104.28 107.87 101.84 104.63 99.72 102.04
  Q 81.34 79.66 62.92 57.33
  C 59.32 52.97 54.17 49.68 48.32 52.06"
/>
<path stroke="#ffe594" vector-effect="non-scaling-stroke" d="
  M 48.32 52.06
  C 40.47 55.69 40.82 64.15 45.08 70.42
  Q 63.59 97.69 81.92 125.07
  Q 83.47 127.39 82.13 128.88"
/>
<path stroke="#f6d380" vector-effect="non-scaling-stroke" d="
  M 82.13 128.88
  C 77.43 127.79 74.42 124.53 70.54 120.96
  Q 63.11 114.14 45.78 94.48
  C 41.97 90.16 36.76 87.60 31.52 90.87"
/>
<path stroke="#ffe594" vector-effect="non-scaling-stroke" d="
  M 31.52 90.87
  C 24.81 93.90 25.15 101.46 28.75 106.74
  Q 47.15 133.71 67.26 159.44
  Q 83.16 179.78 94.69 191.81
  Q 103.34 200.84 106.56 203.19
  Q 124.93 216.65 148.02 214.76"
/>
<path stroke="#f6d380" vector-effect="non-scaling-stroke" d="
  M 148.02 214.76
  Q 158.89 213.92 170.49 208.47
  C 192.87 197.95 204.87 180.81 208.28 156.94
  C 210.58 140.88 209.33 122.98 209.93 107.98
  C 210.45 95.11 213.10 81.05 214.85 67.46"
/>
<path stroke="#ffe594" vector-effect="non-scaling-stroke" d="
  M 214.85 67.46
  Q 215.91 60.79 208.74 58.60
  C 198.70 55.54 189.67 66.67 186.44 74.96
  Q 181.07 88.78 179.12 102.05"
/>
<path stroke="#f6d380" vector-effect="non-scaling-stroke" d="
  M 179.12 102.05
  Q 154.54 61.02 130.77 20.32
  C 127.95 15.49 123.00 10.16 116.95 11.95"
/>
<path stroke="#f6b814" vector-effect="non-scaling-stroke" d="
  M 179.12 102.05
  C 182.02 118.43 169.10 125.39 162.19 137.59
  C 154.42 151.29 155.34 167.25 160.32 181.83
  A 1.27 1.26 -11.7 0 1 159.22 183.50
  C 155.47 183.80 151.92 170.89 151.37 168.08
  C 148.41 152.82 150.48 137.33 160.52 125.02
  C 166.28 117.96 175.51 111.72 169.67 101.19
  Q 137.66 43.53 123.90 19.08
  Q 121.54 14.88 116.95 11.95"
/>
<path stroke="#f6b814" vector-effect="non-scaling-stroke" d="
  M 214.85 67.46
  Q 207.21 84.84 204.70 103.31
  C 202.98 115.99 203.46 131.87 203.16 145.99
  C 202.46 179.97 181.45 203.95 149.42 212.87
  C 148.48 213.13 147.82 213.77 148.02 214.76"
/>
<path stroke="#f6b814" vector-effect="non-scaling-stroke" d="
  M 31.52 90.87
  Q 36.54 91.99 39.31 95.20
  Q 59.39 118.44 65.69 125.05
  C 70.39 129.99 76.70 136.91 82.13 128.88"
/>
<path stroke="#f6b814" vector-effect="non-scaling-stroke" d="
  M 48.32 52.06
  Q 54.07 54.16 57.94 59.06
  Q 77.03 83.23 96.12 107.37
  C 98.73 110.67 101.58 113.07 105.60 110.95
  Q 108.14 109.61 108.00 108.05"
/>
<path stroke="#f6b814" vector-effect="non-scaling-stroke" d="
  M 74.80 21.52
  Q 81.31 21.41 84.83 27.19
  Q 98.45 49.58 112.07 71.95
  Q 122.05 88.35 125.39 92.06
  Q 130.66 97.90 135.79 92.42"
/>
<path stroke="#d8dfe2" vector-effect="non-scaling-stroke" d="
  M 171.92 65.68
  C 174.04 65.96 175.40 63.98 175.08 61.99
  C 172.25 44.80 162.31 27.42 146.05 19.63
  C 142.45 17.91 140.26 22.33 142.93 24.33
  C 157.34 35.09 164.78 47.76 170.35 64.39
  A 1.91 1.91 0.0 0 0 171.92 65.68"
/>
<path stroke="#d8dfe2" vector-effect="non-scaling-stroke" d="
  M 55.81 163.69
  Q 34.70 149.86 26.15 125.58
  A 1.54 1.52 8.3 0 0 25.60 124.85
  C 23.16 123.11 20.60 125.58 21.23 128.25
  C 25.25 145.03 36.50 162.18 53.14 168.41
  C 56.97 169.84 58.77 165.62 55.81 163.69"
/>
<path stroke="#d8dfe2" vector-effect="non-scaling-stroke" d="
  M 44.31 173.69
  Q 23.14 159.58 14.99 136.04
  A 2.50 2.49 70.8 0 0 11.82 134.50
  C 9.88 135.18 9.56 136.40 10.02 138.35
  C 13.98 155.27 25.84 173.40 43.10 178.88
  A 1.45 1.39 -46.2 0 0 44.08 178.84
  C 46.55 177.83 46.55 175.18 44.31 173.69"
/>
</g>
<path fill="#b0bec5" d="
  M 155.86 9.92
  C 160.53 10.43 166.55 15.38 169.34 18.17
  Q 183.84 32.64 186.92 53.01
  Q 187.27 55.33 185.12 56.24
  A 2.11 2.11 0.0 0 1 182.31 55.00
  C 176.55 38.84 169.89 26.51 156.03 15.92
  C 153.99 14.36 152.48 12.31 154.90 10.22
  A 1.26 1.24 27.1 0 1 155.86 9.92
  Z"
/>
<path fill="#eda600" d="
  M 179.12 102.05
  C 182.02 118.43 169.10 125.39 162.19 137.59
  C 154.42 151.29 155.34 167.25 160.32 181.83
  A 1.27 1.26 -11.7 0 1 159.22 183.50
  C 155.47 183.80 151.92 170.89 151.37 168.08
  C 148.41 152.82 150.48 137.33 160.52 125.02
  C 166.28 117.96 175.51 111.72 169.67 101.19
  Q 137.66 43.53 123.90 19.08
  Q 121.54 14.88 116.95 11.95
  C 123.00 10.16 127.95 15.49 130.77 20.32
  Q 154.54 61.02 179.12 102.05
  Z"
/>
<path fill="#ffca28" d="
  M 116.95 11.95
  Q 121.54 14.88 123.90 19.08
  Q 137.66 43.53 169.67 101.19
  C 175.51 111.72 166.28 117.96 160.52 125.02
  C 150.48 137.33 148.41 152.82 151.37 168.08
  C 151.92 170.89 155.47 183.80 159.22 183.50
  A 1.27 1.26 -11.7 0 0 160.32 181.83
  C 155.34 167.25 154.42 151.29 162.19 137.59
  C 169.10 125.39 182.02 118.43 179.12 102.05
  Q 181.07 88.78 186.44 74.96
  C 189.67 66.67 198.70 55.54 208.74 58.60
  Q 215.91 60.79 214.85 67.46
  Q 207.21 84.84 204.70 103.31
  C 202.98 115.99 203.46 131.87 203.16 145.99
  C 202.46 179.97 181.45 203.95 149.42 212.87
  C 148.48 213.13 147.82 213.77 148.02 214.76
  Q 124.93 216.65 106.56 203.19
  Q 103.34 200.84 94.69 191.81
  Q 83.16 179.78 67.26 159.44
  Q 47.15 133.71 28.75 106.74
  C 25.15 101.46 24.81 93.90 31.52 90.87
  Q 36.54 91.99 39.31 95.20
  Q 59.39 118.44 65.69 125.05
  C 70.39 129.99 76.70 136.91 82.13 128.88
  Q 83.47 127.39 81.92 125.07
  Q 63.59 97.69 45.08 70.42
  C 40.82 64.15 40.47 55.69 48.32 52.06
  Q 54.07 54.16 57.94 59.06
  Q 77.03 83.23 96.12 107.37
  C 98.73 110.67 101.58 113.07 105.60 110.95
  Q 108.14 109.61 108.00 108.05
  Q 108.60 106.15 107.97 105.04
  Q 90.80 75.21 74.12 45.10
  C 70.30 38.21 64.22 26.32 74.80 21.52
  Q 81.31 21.41 84.83 27.19
  Q 98.45 49.58 112.07 71.95
  Q 122.05 88.35 125.39 92.06
  Q 130.66 97.90 135.79 92.42
  Q 137.76 91.90 137.04 89.72
  Q 133.61 79.31 125.73 62.11
  Q 118.44 46.22 111.15 30.33
  C 107.84 23.10 106.86 14.12 116.95 11.95
  Z"
/>
<path fill="#b0bec5" d="
  M 171.92 65.68
  A 1.91 1.91 0.0 0 1 170.35 64.39
  C 164.78 47.76 157.34 35.09 142.93 24.33
  C 140.26 22.33 142.45 17.91 146.05 19.63
  C 162.31 27.42 172.25 44.80 175.08 61.99
  C 175.40 63.98 174.04 65.96 171.92 65.68
  Z"
/>
<path fill="#eda600" d="
  M 135.79 92.42
  Q 130.66 97.90 125.39 92.06
  Q 122.05 88.35 112.07 71.95
  Q 98.45 49.58 84.83 27.19
  Q 81.31 21.41 74.80 21.52
  C 84.59 15.64 91.26 26.23 95.46 33.01
  Q 116.45 66.87 130.51 88.47
  Q 132.29 91.22 135.79 92.42
  Z"
/>
<path fill="#eda600" d="
  M 108.00 108.05
  Q 108.14 109.61 105.60 110.95
  C 101.58 113.07 98.73 110.67 96.12 107.37
  Q 77.03 83.23 57.94 59.06
  Q 54.07 54.16 48.32 52.06
  C 54.17 49.68 59.32 52.97 62.92 57.33
  Q 81.34 79.66 99.72 102.04
  C 101.84 104.63 104.28 107.87 108.00 108.05
  Z"
/>
<path fill="#eda600" d="
  M 214.85 67.46
  C 213.10 81.05 210.45 95.11 209.93 107.98
  C 209.33 122.98 210.58 140.88 208.28 156.94
  C 204.87 180.81 192.87 197.95 170.49 208.47
  Q 158.89 213.92 148.02 214.76
  C 147.82 213.77 148.48 213.13 149.42 212.87
  C 181.45 203.95 202.46 179.97 203.16 145.99
  C 203.46 131.87 202.98 115.99 204.70 103.31
  Q 207.21 84.84 214.85 67.46
  Z"
/>
<path fill="#eda600" d="
  M 82.13 128.88
  C 76.70 136.91 70.39 129.99 65.69 125.05
  Q 59.39 118.44 39.31 95.20
  Q 36.54 91.99 31.52 90.87
  C 36.76 87.60 41.97 90.16 45.78 94.48
  Q 63.11 114.14 70.54 120.96
  C 74.42 124.53 77.43 127.79 82.13 128.88
  Z"
/>
<path fill="#b0bec5" d="
  M 55.81 163.69
  C 58.77 165.62 56.97 169.84 53.14 168.41
  C 36.50 162.18 25.25 145.03 21.23 128.25
  C 20.60 125.58 23.16 123.11 25.60 124.85
  A 1.54 1.52 8.3 0 1 26.15 125.58
  Q 34.70 149.86 55.81 163.69
  Z"
/>
<path fill="#b0bec5" d="
  M 44.31 173.69
  C 46.55 175.18 46.55 177.83 44.08 178.84
  A 1.45 1.39 -46.2 0 1 43.10 178.88
  C 25.84 173.40 13.98 155.27 10.02 138.35
  C 9.56 136.40 9.88 135.18 11.82 134.50
  A 2.50 2.49 70.8 0 1 14.99 136.04
  Q 23.14 159.58 44.31 173.69
  Z"
/>
</svg>
